<?xml version="1.0" encoding="UTF-8"?>
<svg width="16px" height="16px" viewBox="0 0 16 16" version="1.1" xmlns="http://www.w3.org/2000/svg" xmlns:xlink="http://www.w3.org/1999/xlink">
    <title>评估中</title>
    <g id="评估中" stroke="none" stroke-width="1" fill="none" fill-rule="evenodd" fill-opacity="0.7">
        <g id="ICON-/-Basic-/-Clock" transform="translate(1.333333, 1.333333)" fill="#0050A9" fill-rule="nonzero">
            <path d="M8.8817842e-16,6.66666667 C8.8817842e-16,10.3426666 2.99066671,13.3333333 6.66666667,13.3333333 C10.3426666,13.3333333 13.3333333,10.3426666 13.3333333,6.66666667 C13.3333333,2.99066671 10.3426666,8.8817842e-16 6.66666667,8.8817842e-16 C2.99066671,8.8817842e-16 8.8817842e-16,2.99066671 8.8817842e-16,6.66666667 Z M1.33333333,6.66666667 C1.33333333,3.72600015 3.72600015,1.33333333 6.66666667,1.33333333 C9.60733287,1.33333333 12,3.72600015 12,6.66666667 C12,9.60733287 9.60733287,12 6.66666667,12 C3.72600015,12 1.33333333,9.60733287 1.33333333,6.66666667 Z M6,3.33333333 L6,7.33333333 L10,7.33333333 L10,6 L7.33333333,6 L7.33333333,3.33333333 L6,3.33333333 Z" id="basic-/-clock"></path>
        </g>
    </g>
</svg>