<?xml version="1.0" encoding="UTF-8"?>
<svg width="16px" height="16px" viewBox="0 0 16 16" version="1.1" xmlns="http://www.w3.org/2000/svg" xmlns:xlink="http://www.w3.org/1999/xlink">
    <title>已完成</title>
    <g id="已完成" stroke="none" stroke-width="1" fill="none" fill-rule="evenodd">
        <g id="ICON-/-Basic-/-Clock" transform="translate(1.330000, 1.333333)" fill="#17794B" fill-rule="nonzero">
            <path d="M0,6.66666667 C0,10.3426666 2.99066671,13.3333333 6.66666667,13.3333333 C10.3426666,13.3333333 13.3333333,10.3426666 13.3333333,6.66666667 C13.3333333,2.99066671 10.3426666,0 6.66666667,0 C2.99066671,0 0,2.99066671 0,6.66666667 Z M1.33333333,6.66666667 C1.33333333,3.72600015 3.72600015,1.33333333 6.66666667,1.33333333 C9.60733287,1.33333333 12,3.72600015 12,6.66666667 C12,9.60733287 9.60733287,12 6.66666667,12 C3.72600015,12 1.33333333,9.60733287 1.33333333,6.66666667 Z" id="basic-/-clock"></path>
            <path d="M9.08877442,3.99179271 L10.0287743,4.93845942 L5.40254777,9.56468597 L2.8122901,6.96776149 L3.75229,6.02776159 L5.40254777,7.67801936 L9.08877442,3.99179271 Z" id="basic-/-circle_check"></path>
        </g>
    </g>
</svg>