<?xml version="1.0" encoding="UTF-8"?>
<svg width="16px" height="16px" viewBox="0 0 16 16" version="1.1" xmlns="http://www.w3.org/2000/svg" xmlns:xlink="http://www.w3.org/1999/xlink">
    <title>已回复</title>
    <g id="已回复" stroke="none" stroke-width="1" fill="none" fill-rule="evenodd">
        <g id="ICON-/-Basic-/-Clock" transform="translate(1.333333, 1.333333)" fill="#17794B" fill-rule="nonzero">
            <path d="M1.11022302e-15,6.66666667 C1.11022302e-15,10.3426666 2.99066671,13.3333333 6.66666667,13.3333333 C10.3426666,13.3333333 13.3333333,10.3426666 13.3333333,6.66666667 C13.3333333,2.99066671 10.3426666,1.11022302e-15 6.66666667,1.11022302e-15 C2.99066671,1.11022302e-15 1.11022302e-15,2.99066671 1.11022302e-15,6.66666667 Z M1.33333333,6.66666667 C1.33333333,3.72600015 3.72600015,1.33333333 6.66666667,1.33333333 C9.60733318,1.33333333 12,3.72600015 12,6.66666667 C12,9.60733318 9.60733318,12 6.66666667,12 C3.72600015,12 1.33333333,9.60733318 1.33333333,6.66666667 Z M5.33333333,5.66666667 C5.33333333,5.11438191 4.88561805,4.66666667 4.33333333,4.66666667 C3.78104858,4.66666667 3.33333333,5.11438191 3.33333333,5.66666667 C3.33333333,6.21895138 3.78104858,6.66666667 4.33333333,6.66666667 C4.88561805,6.66666667 5.33333333,6.21895138 5.33333333,5.66666667 Z M9.99066671,5.66200002 C9.99066671,5.11229261 9.54504077,4.66666667 8.99533335,4.66666667 C8.44562594,4.66666667 8,5.11229261 8,5.66200002 C8,6.21170743 8.44562594,6.65733337 8.99533335,6.65733337 C9.54504077,6.65733337 9.99066671,6.21170743 9.99066671,5.66200002 Z M10,8 L3.33333333,8 C3.77777778,9.77777778 4.88888889,10.6666667 6.66666667,10.6666667 C8.44444444,10.6666667 9.55555556,9.77777778 10,8 Z" id="basic-/-happy"></path>
        </g>
    </g>
</svg>