<?xml version="1.0" encoding="UTF-8"?>
<svg width="130px" height="130px" viewBox="0 0 130 130" version="1.1" xmlns="http://www.w3.org/2000/svg" xmlns:xlink="http://www.w3.org/1999/xlink">
    <defs>
        <linearGradient x1="50%" y1="-13.8193404%" x2="50%" y2="64.8839293%" id="linearGradient-1">
            <stop stop-color="#E2E4E8" offset="0%"></stop>
            <stop stop-color="#F4F6F8" stop-opacity="0" offset="100%"></stop>
        </linearGradient>
        <linearGradient x1="50%" y1="0%" x2="82.9760778%" y2="82.981404%" id="linearGradient-2">
            <stop stop-color="#E9EBEE" offset="0%"></stop>
            <stop stop-color="#CCCFD4" offset="100%"></stop>
        </linearGradient>
        <linearGradient x1="73.1541995%" y1="7.59759519%" x2="64.8191163%" y2="99.4874357%" id="linearGradient-3">
            <stop stop-color="#E9EBEE" offset="0%"></stop>
            <stop stop-color="#CCCFD4" offset="100%"></stop>
        </linearGradient>
        <linearGradient x1="62.6720947%" y1="77.5532797%" x2="50%" y2="36.6230678%" id="linearGradient-4">
            <stop stop-color="#C5C8CD" offset="0%"></stop>
            <stop stop-color="#F7F9FB" offset="100%"></stop>
        </linearGradient>
        <linearGradient x1="50%" y1="0%" x2="50%" y2="100%" id="linearGradient-5">
            <stop stop-color="#F0F3F7" offset="0%"></stop>
            <stop stop-color="#EDF0F4" offset="77.2776993%"></stop>
            <stop stop-color="#D0D3D7" offset="87.0998963%"></stop>
            <stop stop-color="#C5C8CD" offset="100%"></stop>
        </linearGradient>
        <linearGradient x1="50%" y1="100%" x2="50%" y2="-68.2659632%" id="linearGradient-6">
            <stop stop-color="#CDD0D5" offset="0%"></stop>
            <stop stop-color="#F4F5F5" offset="100%"></stop>
        </linearGradient>
        <linearGradient x1="64.4153235%" y1="100%" x2="50%" y2="0%" id="linearGradient-7">
            <stop stop-color="#C5C8CD" offset="0%"></stop>
            <stop stop-color="#E9EBEE" offset="100%"></stop>
        </linearGradient>
        <linearGradient x1="50%" y1="181.674539%" x2="50%" y2="-31.6799487%" id="linearGradient-8">
            <stop stop-color="#C5C8CD" offset="0%"></stop>
            <stop stop-color="#E9EBEE" offset="100%"></stop>
        </linearGradient>
    </defs>
    <g id="页面-1" stroke="none" stroke-width="1" fill="none" fill-rule="evenodd">
        <g id="问卷调查-缺省界面" transform="translate(-896.000000, -385.000000)">
            <g id="编组" transform="translate(463.000000, 205.000000)">
                <g id="问卷调查-+-问卷调查备份-+-问卷调查备份-2-蒙版" transform="translate(0.000000, -1.000000)">
                    <g id="编组-2" transform="translate(407.500000, 181.000000)">
                        <g id="编组-4" transform="translate(25.500000, 0.000000)">
                            <rect id="矩形" x="0" y="0" width="130" height="130"></rect>
                            <ellipse id="椭圆形" fill="url(#linearGradient-1)" cx="64.7965116" cy="103.761628" rx="54.7965116" ry="17.7616279"></ellipse>
                            <path d="M97.856794,15.8866493 L97.2929955,16.7004286 C97.1799893,16.8635403 97.1194426,17.0572498 97.1194426,17.2556832 C97.1194426,17.7941608 97.555965,18.2306832 98.0944426,18.2306832 L99.1277965,18.2306832 C99.2988594,18.2306832 99.4669116,18.185677 99.6150784,18.1001838 C100.081483,17.8310655 100.241416,17.2348061 99.9722972,16.7684013 L99.5027418,15.954622 C99.4307262,15.829813 99.3319417,15.722518 99.2134956,15.6404568 C98.7708686,15.3337982 98.1634526,15.4440223 97.856794,15.8866493 Z M98.7507835,16.3083293 C98.7705245,16.3220062 98.7869886,16.3398887 98.7989912,16.3606902 L99.2685467,17.1744695 C99.3133997,17.2522037 99.2867443,17.3515802 99.2090102,17.3964333 C99.1843157,17.4106821 99.156307,17.4181832 99.1277965,17.4181832 L98.0944426,17.4181832 C98.0046963,17.4181832 97.9319426,17.3454294 97.9319426,17.2556832 C97.9319426,17.2226109 97.9420337,17.190326 97.9608681,17.1631407 L98.5246666,16.3493614 C98.5757763,16.2755903 98.6770123,16.2572196 98.7507835,16.3083293 Z" id="三角形" fill-opacity="0.509045154" fill="#D4D7DB" fill-rule="nonzero" transform="translate(98.611201, 16.848750) rotate(45.000000) translate(-98.611201, -16.848750) "></path>
                            <path d="M22.0342789,67.5109369 L20.5896363,69.596115 C20.3542068,69.9359309 20.2280677,70.3394924 20.2280677,70.7528953 C20.2280677,71.8747237 21.1374893,72.7841453 22.2593177,72.7841453 L24.9071204,72.7841453 C25.2635013,72.7841453 25.61361,72.6903824 25.922291,72.5122717 C26.8939677,71.9516085 27.22716,70.7094015 26.6664968,69.7377247 L25.4633367,67.6525466 C25.3133044,67.3925278 25.1075033,67.1689966 24.8607406,66.9980357 C23.938601,66.3591636 22.6731511,66.5887973 22.0342789,67.5109369 Z M23.9353164,68.3337809 C23.9846689,68.367973 24.0258292,68.4126793 24.0558356,68.464683 L25.2589957,70.5498612 C25.3711283,70.7441965 25.3044899,70.9926379 25.1101545,71.1047705 C25.0484183,71.1403927 24.9783966,71.1591453 24.9071204,71.1591453 L22.2593177,71.1591453 C22.034952,71.1591453 21.8530677,70.9772609 21.8530677,70.7528953 C21.8530677,70.6702147 21.8782955,70.5895024 21.9253814,70.5215392 L23.3700241,68.4363611 C23.4977985,68.2519332 23.7508885,68.2060064 23.9353164,68.3337809 Z" id="三角形" fill="#E9EDF1" fill-rule="nonzero" transform="translate(23.583389, 69.710215) rotate(198.000000) translate(-23.583389, -69.710215) "></path>
                            <path d="M109.671618,50.6682298 L108.859118,50.6682298 C108.186021,50.6682298 107.640368,51.2138827 107.640368,51.8869798 L107.640368,52.6994798 C107.640368,53.3725768 108.186021,53.9182298 108.859118,53.9182298 L109.671618,53.9182298 C110.344715,53.9182298 110.890368,53.3725768 110.890368,52.6994798 L110.890368,51.8869798 C110.890368,51.2138827 110.344715,50.6682298 109.671618,50.6682298 Z M109.671618,51.4807298 C109.895984,51.4807298 110.077868,51.6626141 110.077868,51.8869798 L110.077868,52.6994798 C110.077868,52.9238454 109.895984,53.1057298 109.671618,53.1057298 L108.859118,53.1057298 C108.634753,53.1057298 108.452868,52.9238454 108.452868,52.6994798 L108.452868,51.8869798 C108.452868,51.6626141 108.634753,51.4807298 108.859118,51.4807298 L109.671618,51.4807298 Z" id="矩形" fill="#D4D7DB" fill-rule="nonzero" transform="translate(109.265368, 52.293230) rotate(-29.000000) translate(-109.265368, -52.293230) "></path>
                            <path d="M71.5313619,21.5625419 L70.7188619,21.5625419 C69.8213992,21.5625419 69.0938619,22.2900791 69.0938619,23.1875419 L69.0938619,24.0000419 C69.0938619,24.8975046 69.8213992,25.6250419 70.7188619,25.6250419 L71.5313619,25.6250419 C72.4288246,25.6250419 73.1563619,24.8975046 73.1563619,24.0000419 L73.1563619,23.1875419 C73.1563619,22.2900791 72.4288246,21.5625419 71.5313619,21.5625419 Z M71.5313619,22.3750419 C71.9800933,22.3750419 72.3438619,22.7388105 72.3438619,23.1875419 L72.3438619,24.0000419 C72.3438619,24.4487732 71.9800933,24.8125419 71.5313619,24.8125419 L70.7188619,24.8125419 C70.2701305,24.8125419 69.9063619,24.4487732 69.9063619,24.0000419 L69.9063619,23.1875419 C69.9063619,22.7388105 70.2701305,22.3750419 70.7188619,22.3750419 L71.5313619,22.3750419 Z" id="矩形" fill="#D4D7DB" fill-rule="nonzero" transform="translate(71.125112, 23.593792) rotate(30.000000) translate(-71.125112, -23.593792) "></path>
                            <path d="M29,54.5023024 C27.7243858,54 12.7981696,37.1192433 23.5835407,28 C29.9195418,25.2518168 32.3232337,32.4367645 29,35 C25.6767663,37.5632355 18.5096848,35.7653315 20,28 C20.9935434,22.8231123 22.8857989,20.4294632 25.6767663,20.8190528" id="路径-4" stroke="#979797" stroke-width="0.2" stroke-linecap="round" stroke-dasharray="1"></path>
                            <path d="M27.1364956,7.76623841 C26.2416985,7.91497428 25.8997042,8.35188176 26.1105125,9.07696087 C26.4267251,10.1645795 27.8618141,10.2552084 28.1322891,10.2552084 C28.3126059,10.2552084 28.9783803,10.2552084 30.1296126,10.2552084 C31.070985,10.1479026 31.3845494,10.3666676 31.0703057,10.9115033 C30.7560621,11.456339 29.444792,13.2268608 27.1364956,16.2230689 C26.6533701,17.0079374 26.5788305,17.6579027 26.9128766,18.1729649 C27.4139457,18.9455582 28.443919,19.269684 28.9540199,19.269684 C29.2940872,19.269684 30.8441931,19.269684 33.6043377,19.269684 C34.3966538,19.2366632 34.9470215,18.9462432 35.2554408,18.3984241 C35.5499429,17.579331 35.3988119,16.8493994 34.5095405,16.6902376 C34.0687012,16.6902376 33.1333029,16.6902376 31.7033458,16.6902376 C30.8631838,16.6753241 30.6521705,16.3877173 31.0703057,15.8274172 C31.3287098,15.4097114 32.4751214,13.7710734 34.5095405,10.9115033 C34.9082078,10.3584615 34.9924683,9.74694735 34.7623221,9.07696087 C34.3718888,8.02849508 33.5351614,7.76623841 33.166757,7.76623841 C32.921154,7.76623841 30.9110668,7.76623841 27.1364956,7.76623841 Z" id="路径-6" fill="url(#linearGradient-2)"></path>
                            <path d="M41.0391135,15.9347561 C40.5155829,15.7172342 40.189612,15.83554 40.0612009,16.2896733 C39.8685843,16.9708734 40.5992083,17.4942102 40.7425683,17.5837914 C40.8381416,17.6435123 41.191022,17.8640165 41.8012097,18.245304 C42.335705,18.5002108 42.4294487,18.7200152 42.0824408,18.9047172 C41.7354329,19.0894191 40.4540243,19.5935569 38.2382151,20.4171305 C37.722196,20.6731235 37.4674195,20.9929372 37.4738856,21.3765715 C37.4835848,21.9520231 37.9221513,22.4649461 38.1925201,22.6338913 C38.372766,22.7465214 39.1943688,23.2599158 40.6573284,24.1740744 C41.0882162,24.4189871 41.4761145,24.4473373 41.8210235,24.2591251 C42.2484017,23.9225201 42.4100508,23.4855799 41.9914245,23.1066931 C41.7577664,22.9606873 41.2619772,22.6508838 40.5040569,22.1772827 C40.0636852,21.8911168 40.047097,21.668789 40.4542924,21.5102993 C40.7295983,21.374486 41.8799471,20.8856496 43.9053387,20.0437902 C44.2998115,19.8826998 44.5470053,19.586486 44.6469201,19.1551487 C44.7872301,18.470119 44.4305987,18.0539913 44.2353333,17.9319759 C44.1051563,17.8506323 43.0397497,17.1848924 41.0391135,15.9347561 Z" id="路径-6备份" fill="url(#linearGradient-3)"></path>
                            <path d="M36,64 L94,64 L94,86 C94,90.418278 90.418278,94 86,94 L44,94 C39.581722,94 36,90.418278 36,86 L36,64 L36,64 Z" id="矩形" fill="url(#linearGradient-4)"></path>
                            <path d="M57.5,75 C58.3284271,75 59,74.3284271 59,73.5 C59,72.6715729 58.3284271,72 57.5,72 C56.6715729,72 56,72.6715729 56,73.5 C56,74.3284271 56.6715729,75 57.5,75 Z M72.5,75 C73.3284271,75 74,74.3284271 74,73.5 C74,72.6715729 73.3284271,72 72.5,72 C71.6715729,72 71,72.6715729 71,73.5 C71,74.3284271 71.6715729,75 72.5,75 Z" id="形状结合" fill="#CACDD2"></path>
                            <rect id="矩形" fill="#CACDD2" x="63" y="79" width="5" height="1" rx="0.5"></rect>
                            <path d="M36.3860009,48 L93.6139991,48 C94.4476882,48 95.1939296,48.5171457 95.4866574,49.2977531 L99.4799861,59.9466297 C100.061746,61.4979907 99.2757299,63.2272272 97.7243689,63.8089875 C97.3875377,63.9352992 97.0307344,64 96.6709986,64 L33.3290014,64 C31.6721472,64 30.3290014,62.6568542 30.3290014,61 C30.3290014,60.6402641 30.3937022,60.2834609 30.5200139,59.9466297 L34.5133426,49.2977531 C34.8060704,48.5171457 35.5523118,48 36.3860009,48 Z" id="矩形备份" fill="url(#linearGradient-5)"></path>
                            <rect id="矩形" fill="url(#linearGradient-6)" x="44" y="52" width="43" height="4" rx="2"></rect>
                            <path d="M50,32 L81,32 C82.1045695,32 83,32.8954305 83,34 L83,56 L83,56 L48,56 L48,34 C48,32.8954305 48.8954305,32 50,32 Z" id="矩形" fill="#FFFFFF"></path>
                            <circle id="椭圆形" fill="url(#linearGradient-7)" cx="66" cy="43" r="9"></circle>
                            <path d="M65.4454752,46.5956387 C65.3160547,46.7228209 65.2441558,46.8961176 65.2460635,47.0762776 C65.2460635,47.4590587 65.5500702,47.7634389 65.9335863,47.7634389 C66.3161669,47.7634389 66.6094164,47.4590587 66.6094164,47.0762776 C66.6094164,46.6934965 66.3161669,46.400646 65.9331185,46.4006459 C65.7508866,46.398151 65.5748957,46.4684566 65.4454752,46.5956387 Z M63.4940498,41.3098622 L63.452892,41.4672226 L63.4365224,41.5646846 L63.4318453,41.6017404 L63.4285714,41.6697607 C63.4285714,42.0565627 63.7601725,42.3159536 64.0955152,42.3159536 C64.3691212,42.3159536 64.5982955,42.124583 64.6876267,41.824583 L64.7068025,41.7474257 C64.9069792,40.8210297 65.3690693,40.402248 66.0547212,40.402248 C66.7964974,40.402248 67.3072286,40.8875272 67.3072286,41.6367658 C67.3072286,42.2712835 67.138388,42.5870196 66.6561867,42.957578 L66.5205529,43.0580856 L66.1632282,43.3068165 L66.0505119,43.3788978 C65.6080653,43.6860044 65.3793587,44.0819434 65.3508289,44.6387962 L65.3480226,44.7606236 L65.3480226,44.8707759 L65.3779556,45.2905001 C65.3919867,45.6666422 65.5856155,45.8686727 65.8947669,45.8686727 C66.1828717,45.8686727 66.3797745,45.7072514 66.4312218,45.392023 L66.4410435,45.3102971 L66.5009094,44.8616389 C66.5191498,44.6692531 66.6089487,44.502248 66.7347607,44.4042785 L66.7899496,44.3662074 L66.8905056,44.2941262 C68.1126124,43.5692531 68.5714286,42.9063089 68.5714286,41.6479333 C68.5714286,40.2083394 67.5541755,39.1428571 66.064543,39.1428571 C64.7596529,39.1428571 63.8724211,39.9768673 63.4940498,41.3098622 Z" id="形状结合" fill="#FFFFFF" fill-rule="nonzero"></path>
                            <path d="M48.2,56 L48,56 L48,30 C48,28.8954305 48.8954305,28 50,28 L81,28 C82.1045695,28 83,28.8954305 83,30 L83,56 L82.8,56 L82.8,55 L82.799,55 L82.8,30 C82.8,29.0555931 82.0726866,28.2810593 81.147628,28.2059669 L81,28.2 L50,28.2 C49.0555931,28.2 48.2810593,28.9273134 48.2059669,29.852372 L48.2,30 L48.2,56 Z" id="形状结合" fill="#D2D4D9" fill-rule="nonzero"></path>
                            <path d="M87.375,70.625 L98.3711446,70.625 L98.3711446,70.625 L101.1875,73.5454713 L101.1875,85.25 C101.1875,85.6987314 100.823731,86.0625 100.375,86.0625 L87.375,86.0625 C86.9262686,86.0625 86.5625,85.6987314 86.5625,85.25 L86.5625,71.4375 C86.5625,70.9887686 86.9262686,70.625 87.375,70.625 Z" id="矩形" fill="url(#linearGradient-8)"></path>
                            <polygon id="矩形" fill="#CACDD2" transform="translate(99.779322, 72.085236) rotate(-180.000000) translate(-99.779322, -72.085236) " points="98.3711446 70.625 101.1875 70.625 101.1875 73.5454713"></polygon>
                            <path d="M90.21875,75.5 L97.53125,75.5 C97.7556157,75.5 97.9375,75.6818843 97.9375,75.90625 L97.9375,77.53125 C97.9375,77.7556157 97.7556157,77.9375 97.53125,77.9375 L90.21875,77.9375 C89.9943843,77.9375 89.8125,77.7556157 89.8125,77.53125 L89.8125,75.90625 C89.8125,75.6818843 89.9943843,75.5 90.21875,75.5 Z" id="矩形" fill-opacity="0.6" fill="#FFFFFF"></path>
                            <path d="M90.21875,79.5625 L97.53125,79.5625 C97.7556157,79.5625 97.9375,79.7443843 97.9375,79.96875 C97.9375,80.1931157 97.7556157,80.375 97.53125,80.375 L90.21875,80.375 C89.9943843,80.375 89.8125,80.1931157 89.8125,79.96875 C89.8125,79.7443843 89.9943843,79.5625 90.21875,79.5625 Z" id="矩形" fill-opacity="0.6" fill="#FFFFFF"></path>
                            <rect id="矩形" fill-opacity="0.6" fill="#FFFFFF" x="89.8125" y="82" width="4" height="1" rx="0.5"></rect>
                        </g>
                    </g>
                </g>
            </g>
        </g>
    </g>
</svg>