<svg xmlns="http://www.w3.org/2000/svg" width="44" height="44" viewBox="0 0 44 44">
  <g fill="none" fill-rule="evenodd" transform="translate(1 1)">
    <circle cx="21" cy="21" r="21" fill="#FFF" stroke="#FFF"/>
    <path fill="#CCC" fill-rule="nonzero" d="M21.0000905,1 C10.000052,1 1,10.000017 1,21.0001131 C1,32.0000283 10.000052,41 21.0001357,41 C32,41 41,32.0000283 41,21.0001131 C41,9.99997173 32,1 21.0001357,1 L21.0000905,1 Z M21.5000079,6.99996607 C29.1250269,6.99996607 29.1250269,12.7500862 29.1250269,15.9999378 C29.1250269,19.250106 26.1249794,25.2500721 21.5000079,25.3749272 C17.0000271,25.3749272 13.874989,19.3750064 13.874989,15.9999378 C13.874989,12.750041 13.874989,6.99996607 21.5000079,6.99996607 Z M21.0001357,39.8749922 C15.2500221,39.8749922 10.000052,37.2498685 6.50004184,33.1250813 C6.99995929,31.874947 7.62500311,30.4999576 8.50007351,29.750058 C10.3749788,28.2498968 15.9999661,25.7499449 15.9999661,25.7499449 L19.4999763,32.5000368 L20.1249748,30.8749753 L19.1250042,28.8749413 L21.1250359,26.8750884 L23.1250676,28.8749413 L22.2499519,30.9999208 L22.7500503,32.6250276 L26.3750059,26.000017 C26.3750059,26.000017 31.999948,28.4999237 33.8750342,30.0000848 C34.7499237,30.6249484 35.3749675,31.7500919 35.7499847,32.7499279 C32.3750105,37.1250134 27.0000045,39.8749922 21.0000905,39.8749922 L21.0001357,39.8749922 Z"/>
  </g>
</svg>