<?xml version="1.0" encoding="UTF-8"?>
<svg width="16px" height="16px" viewBox="0 0 16 16" version="1.1" xmlns="http://www.w3.org/2000/svg" xmlns:xlink="http://www.w3.org/1999/xlink">
    <title>icon/16px/collect-1</title>
    <g id="icon/16px/collect-1" stroke="none" stroke-width="1" fill="none" fill-rule="evenodd" fill-opacity="0.7">
        <path d="M10.9571114,1.75713094 C12.7389917,1.75713094 15,2.97138774 14.4750194,6.3268777 C14.1359694,8.49396497 12.0998228,10.9620349 8.36657951,13.7310876 L8,14 C4.03330751,11.1215784 1.87496772,8.56387101 1.52498063,6.3268777 C1,2.97138774 3.26100833,1.75713094 5.0428886,1.75713094 C6.23080878,1.75713094 7.21651258,2.1618832 8,2.97138774 C8.78348742,2.1618832 9.76919122,1.75713094 10.9571114,1.75713094 Z M10.9571114,2.75713094 C10.0361284,2.75713094 9.31076651,3.05498091 8.71855958,3.66685314 L8,4.40927379 L7.28144042,3.66685314 C6.68923349,3.05498091 5.96387165,2.75713094 5.0428886,2.75713094 C3.31732317,2.75713094 2.15988855,3.91558446 2.51296187,6.17230385 C2.79240598,7.95841144 4.57311391,10.1595468 7.90107523,12.6819107 L7.99980094,12.7551309 L8.10837712,12.6747832 C11.3213474,10.2382084 13.0880327,8.10181667 13.4541573,6.35194295 L13.4870381,6.17230385 C13.8401114,3.91558446 12.6826768,2.75713094 10.9571114,2.75713094 Z" id="路径" fill="#000000" fill-rule="nonzero"></path>
    </g>
</svg>