<?xml version="1.0" encoding="UTF-8"?>
<svg width="56px" height="56px" viewBox="0 0 56 56" version="1.1" xmlns="http://www.w3.org/2000/svg" xmlns:xlink="http://www.w3.org/1999/xlink">
    <title>icon/加入/社区动态</title>
    <defs>
        <linearGradient x1="50%" y1="0%" x2="50%" y2="100%" id="linearGradient-1">
            <stop stop-color="#FFCB4B" offset="0%"></stop>
            <stop stop-color="#E66F02" offset="100%"></stop>
        </linearGradient>
    </defs>
    <g id="icon/加入/社区动态" stroke="none" stroke-width="1" fill="none" fill-rule="evenodd">
        <g id="图标">
            <rect id="矩形" fill="url(#linearGradient-1)" x="0" y="0" width="56" height="56" rx="12"></rect>
            <g id="编组" transform="translate(11, 14)" fill="#FFFFFF">
                <circle id="椭圆形" cx="29" cy="19" r="2"></circle>
                <path d="M32.7360587,25.1151804 C32.7360587,23.0198367 31.0374471,21.3212251 28.9421034,21.3212251 C26.8467598,21.3212251 25.1481481,23.0198367 25.1481481,25.1151804 C25.1481481,27.210524 32.7360587,27.210524 32.7360587,25.1151804 Z" id="椭圆形备份-7"></path>
                <path d="M29,15 C32.8659932,15 36,18.1340068 36,22 C36,25.8659932 32.8659932,29 29,29 C25.1340068,29 22,25.8659932 22,22 C22,18.1340068 25.1340068,15 29,15 Z M29,16 C25.6862915,16 23,18.6862915 23,22 C23,25.3137085 25.6862915,28 29,28 C32.3137085,28 35,25.3137085 35,22 C35,18.6862915 32.3137085,16 29,16 Z" id="椭圆形" fill-rule="nonzero"></path>
                <path d="M26,0 C27.6568542,0 29,1.34314575 29,3 L29,14 C28.6613564,14 28.3276273,14.0210412 28.0000487,14.0618877 L28,3 C28,1.8954305 27.1045695,1 26,1 L3,1 C1.8954305,1 1,1.8954305 1,3 L1,22 C1,23.1045695 1.8954305,24 3,24 L21.2521271,24.0003581 C21.3404208,24.3433368 21.4508878,24.6774131 21.5819088,25.0009677 L3,25 C1.34314575,25 0,23.6568542 0,22 L0,3 C0,1.34314575 1.34314575,0 3,0 L26,0 Z" id="形状结合" fill-rule="nonzero"></path>
                <path d="M8.92266053,11.1183433 L8.92266053,17.4637979 C8.92266053,17.712326 8.72118867,17.9137979 8.47266053,17.9137979 C8.22413239,17.9137979 8.02266053,17.712326 8.02266053,17.4637979 L8.02266053,12.0244039 L8.02266053,12.0244039 L2.62569083,12.0244039 C2.3754891,12.0244039 2.17266053,11.8215754 2.17266053,11.5713736 C2.17266053,11.3211719 2.3754891,11.1183433 2.62569083,11.1183433 L8.92266053,11.1183433 L8.92266053,11.1183433 Z" id="路径" fill-rule="nonzero" transform="translate(5.5477, 14.5161) rotate(45) translate(-5.5477, -14.5161)"></path>
                <path d="M22,14.5 C22,14.7761424 21.7761424,15 21.5,15 L15.5,15 C15.2238576,15 15,14.7761424 15,14.5 C15,14.2238576 15.2238576,14 15.5,14 L21.5,14 C21.7761424,14 22,14.2238576 22,14.5 Z" id="矩形" fill-rule="nonzero"></path>
                <polygon id="矩形" points="1 7 28 7 28 8 1 8"></polygon>
            </g>
        </g>
    </g>
</svg>