<?xml version="1.0" encoding="UTF-8"?>
<svg width="48px" height="48px" viewBox="0 0 48 48" version="1.1" xmlns="http://www.w3.org/2000/svg" xmlns:xlink="http://www.w3.org/1999/xlink">
    <title>图片文件</title>
    <defs>
        <rect id="path-1" x="0" y="0" width="48" height="48" rx="8"></rect>
        <mask id="mask-2" maskContentUnits="userSpaceOnUse" maskUnits="objectBoundingBox" x="0" y="0" width="48" height="48" fill="white">
            <use xlink:href="#path-1"></use>
        </mask>
    </defs>
    <g id="二期（反馈广场）" stroke="none" stroke-width="1" fill="none" fill-rule="evenodd">
        <g id="创建反馈" transform="translate(-358, -682)" fill="#000000">
            <g id="我提的bug反馈" transform="translate(106, 232)">
                <g id="图片视频" transform="translate(56, 450)">
                    <g id="图片文件" transform="translate(196, 0)">
                        <use id="矩形" stroke-opacity="0.2" stroke="#000000" mask="url(#mask-2)" stroke-width="2" fill-opacity="0.04" stroke-linejoin="round" stroke-dasharray="3" xlink:href="#path-1"></use>
                        <g id="ICON-/-Action-/-Add" transform="translate(18, 18)" fill-opacity="0.7" fill-rule="nonzero">
                            <path d="M6,0 C6.55228475,-1.01453063e-16 7,0.44771525 7,1 L6.999,4.999 L11,5 C11.5522847,5 12,5.44771525 12,6 C12,6.55228475 11.5522847,7 11,7 L6.999,6.999 L7,11 C7,11.5522847 6.55228475,12 6,12 C5.44771525,12 5,11.5522847 5,11 L4.999,6.999 L1,7 C0.44771525,7 6.76353751e-17,6.55228475 0,6 C-6.76353751e-17,5.44771525 0.44771525,5 1,5 L4.999,4.999 L5,1 C5,0.44771525 5.44771525,1.01453063e-16 6,0 Z" id="形状结合"></path>
                        </g>
                    </g>
                </g>
            </g>
        </g>
    </g>
</svg>