<?xml version="1.0" encoding="UTF-8"?>
<svg width="16px" height="16px" viewBox="0 0 16 16" version="1.1" xmlns="http://www.w3.org/2000/svg" xmlns:xlink="http://www.w3.org/1999/xlink">
    <title>icon/16px/hands up-1</title>
    <g id="icon/16px/hands-up-1" stroke="none" stroke-width="1" fill="none" fill-rule="evenodd" fill-opacity="0.7">
        <path d="M6.64630356,2.03831928 C7.43497563,2.03831928 8.08827171,2.64633919 8.08827171,3.41500508 L8.08823364,5.99731928 L8.15918668,5.97494475 C8.1999984,5.96437978 8.24256361,5.95573643 8.28720969,5.94901776 L8.4277179,5.93463883 C8.97715619,5.90258779 9.31110326,6.11813023 9.52703432,6.52780028 L9.55623364,6.58831928 L9.593516,6.57291849 C9.70916073,6.52982552 9.83048064,6.50915257 9.96268269,6.51564514 L10.098705,6.53136863 C10.5786763,6.61750233 10.8573168,6.78960057 11.09215,7.15926434 L11.1572336,7.26831928 L11.2573401,7.22710994 C11.400332,7.17637485 11.5512099,7.15876037 11.7184162,7.18232173 L11.8470145,7.20783909 C12.584282,7.39499862 12.9587678,8.01631783 12.9570875,8.73579153 C12.9737359,8.93835238 12.9834474,9.20368235 12.986328,9.53271288 L12.9865126,9.9581854 C12.9839453,10.3383254 12.9745893,10.7825386 12.9585506,11.2917563 C12.8871172,13.7144539 11.0782992,15.7444271 8.58403942,16.0143744 C6.12462028,16.2805511 3.68776891,14.2450991 3.51743623,11.8905365 L3.50137868,11.3998074 C3.46722031,10.6491595 3.39271852,10.1065604 3.28881148,9.79161633 L3.25486481,9.69714832 C2.77726339,8.49460237 2.74647545,7.31196793 3.86381973,6.95906554 C4.29677285,6.82232148 4.75149919,7.01977132 5.19425778,7.2768605 L5.20324601,7.28110474 L5.20433541,3.41500508 C5.20433541,2.69155483 5.78303366,2.1104069 6.50863684,2.04453985 L6.64630356,2.03831928 Z M6.64630356,3.03831928 C6.39450635,3.03831928 6.20433541,3.21531057 6.20433541,3.41500508 L6.20433541,7.734545 C6.20433541,8.24543977 5.96506802,8.63596294 5.43752336,8.53208021 C5.31547019,8.50804582 5.21429222,8.46025064 5.08097039,8.38044246 C5.03487225,8.35284751 4.86181034,8.24311899 4.82237247,8.21917433 C4.55782721,8.05855594 4.2994717,7.87016117 4.1649952,7.91263428 C3.82847114,8.01892215 3.89559377,8.6012335 4.18969996,9.34239881 L4.23368666,9.46448621 C4.3769395,9.89782376 4.46238269,10.5201094 4.500593,11.3606853 L4.51585821,11.8379841 C4.64422495,13.6083555 6.58016774,15.2254088 8.4764403,15.0201801 C10.4662223,14.804831 11.9020442,13.1934584 11.9590156,11.2612799 C11.9964009,10.0742952 11.9964009,9.25514346 11.9587678,8.77674817 C11.9587678,8.43400758 11.8405835,8.23792486 11.6009632,8.1770959 C11.5897158,8.17424069 11.5838006,8.17290059 11.5737628,8.17716655 L11.5567619,8.18674244 L11.4719254,8.24696354 C11.4575123,8.25699014 11.4422693,8.26751003 11.4270291,8.27790472 L11.3422803,8.33382242 L11.3124177,8.35137697 C11.1149984,8.45548021 10.8864769,8.46975382 10.6748729,8.33002166 C10.5414331,8.24190506 10.4560225,8.11979957 10.3829877,7.95641766 C10.2191462,7.58989709 10.1903541,7.56379023 9.9220707,7.51564518 C9.92624788,7.5163948 9.91782991,7.51958763 9.86332917,7.56099152 C9.84598819,7.57416535 9.77247504,7.63334082 9.75467139,7.64704972 C9.67414472,7.7090557 9.60907501,7.74970602 9.51652595,7.78009637 C9.11398504,7.91227879 8.84592523,7.65554407 8.75334333,7.30346098 C8.66488192,6.96704782 8.62935838,6.92457629 8.48595309,6.93294172 C8.40179659,6.93785092 8.38596894,6.94587345 8.32411467,7.00427396 L8.2932756,7.03379466 L8.27135771,7.0548446 C8.07241831,7.2442076 7.8849773,7.34468279 7.59650754,7.34943501 L7.08827171,7.35780763 L7.08827171,3.41500508 C7.08827171,3.21531057 6.89810077,3.03831928 6.64630356,3.03831928 Z M9.48117243,3.19438772 L10.3471978,3.69438772 C10.5863441,3.83245891 10.6682817,4.13825411 10.5302105,4.37740042 C10.3921393,4.61654673 10.0863441,4.69848431 9.84719783,4.56041312 L8.98117243,4.06041312 C8.74202612,3.92234194 8.66008854,3.61654673 8.79815973,3.37740042 C8.93623091,3.13825411 9.24202612,3.05631653 9.48117243,3.19438772 Z M4.5753676,3.37740042 C4.71343879,3.61654673 4.63150121,3.92234194 4.3923549,4.06041312 L3.5263295,4.56041312 C3.28718319,4.69848431 2.98138798,4.61654673 2.8433168,4.37740042 C2.70524561,4.13825411 2.78718319,3.83245891 3.0263295,3.69438772 L3.8923549,3.19438772 C4.13150121,3.05631653 4.43729642,3.13825411 4.5753676,3.37740042 Z M6.60965723,-1.02389526 C6.88579961,-1.02389526 7.10965723,-0.800037639 7.10965723,-0.523895265 L7.10965723,0.476104735 C7.10965723,0.75224711 6.88579961,0.976104735 6.60965723,0.976104735 C6.33351486,0.976104735 6.10965723,0.75224711 6.10965723,0.476104735 L6.10965723,-0.523895265 C6.10965723,-0.800037639 6.33351486,-1.02389526 6.60965723,-1.02389526 Z M10.0737588,0.74027431 C10.21183,0.979420622 10.1298925,1.28521582 9.89074615,1.42328701 L9.02472074,1.92328701 C8.78557443,2.0613582 8.47977923,1.97942062 8.34170804,1.74027431 C8.20363685,1.501128 8.28557443,1.1953328 8.52472074,1.05726161 L9.39074615,0.557261608 C9.62989246,0.41919042 9.93568766,0.501127998 10.0737588,0.74027431 Z M3.14555562,0.74027431 C3.28362681,0.501127998 3.58942201,0.41919042 3.82856832,0.557261608 L4.69459373,1.05726161 C4.93374004,1.1953328 5.01567761,1.501128 4.87760643,1.74027431 C4.73953524,1.97942062 4.43374004,2.0613582 4.19459373,1.92328701 L3.32856832,1.42328701 C3.08942201,1.28521582 3.00748443,0.979420622 3.14555562,0.74027431 Z" id="形状结合" fill="#000000" fill-rule="nonzero" transform="translate(7.881743, 7.506982) rotate(-25.000000) translate(-7.881743, -7.506982) "></path>
    </g>
</svg>