<?xml version="1.0" encoding="UTF-8"?>
<svg width="16px" height="16px" viewBox="0 0 16 16" version="1.1" xmlns="http://www.w3.org/2000/svg" xmlns:xlink="http://www.w3.org/1999/xlink">
    <title>icon/16px/hands up</title>
    <g id="icon/16px/hands-up" stroke="none" stroke-width="1" fill="none" fill-rule="evenodd" fill-opacity="0.7">
        <path d="M6.63456757,2.01382156 C7.20293588,2.01382156 7.66368942,2.47457511 7.66368942,3.04294341 L7.66316134,5.63263981 L7.66368942,7.630047 C7.66368942,7.75184021 7.74831762,7.85386744 7.86197783,7.8805325 L7.92096988,7.88732746 C8.06306196,7.88732746 8.17825035,7.77213907 8.17825035,7.630047 L8.177577,5.31010471 C8.2620922,5.28765745 8.35087861,5.27569518 8.44245896,5.27569518 C8.97083098,5.27569518 9.40620111,5.67388358 9.46485893,6.18654995 L9.46465266,8.36825357 C9.46465266,8.51034565 9.57984104,8.62553403 9.72193312,8.62553403 C9.8640252,8.62553403 9.97921358,8.51034565 9.97921358,8.36825357 L9.9785515,6.04790404 C10.051098,6.03169268 10.1265349,6.0231405 10.2039693,6.0231405 C10.7076056,6.0231405 11.1267439,6.38491917 11.2156833,6.86277557 L11.2141331,9.12850367 C11.2141331,9.27059575 11.3293215,9.38578414 11.4714136,9.38578414 C11.6135057,9.38578414 11.7286941,9.27059575 11.7286941,9.12850367 L11.7284979,6.75335322 C11.8013698,6.73695389 11.8772093,6.72830766 11.9550684,6.72830766 C12.5234367,6.72830766 12.9841902,7.18906121 12.9841902,7.75742951 L12.9848183,11.0002863 C13.0056649,11.2222566 13.0061613,11.4550498 12.9841902,11.6984864 C12.6067572,13.0942194 11.2330912,15.6824288 8.69281127,15.9778293 C6.24020007,16.2630351 3.91944027,14.0316568 3.76217592,11.7012359 C3.73583165,10.3750083 3.63027577,9.45186725 3.43702978,8.92906334 C3.14716078,8.14485748 3.01950025,7.06138573 3.86169058,6.65647034 C4.33897957,6.4269953 4.68575029,6.51344556 4.99570752,6.7393551 L4.99530654,9.95849201 C4.99530654,10.1269773 5.13189085,10.2635616 5.30037613,10.2635616 C5.46886142,10.2635616 5.60544572,10.1269773 5.60544572,9.95849201 L5.60544572,3.04294341 C5.60544572,2.47457511 6.06619927,2.01382156 6.63456757,2.01382156 Z M9.11028787,3.35806292 L9.13388124,3.37169746 L10.0265895,3.91983504 C10.2678258,4.06795806 10.3510138,4.37893004 10.2159546,4.62771581 L10.1995502,4.65793349 C10.0648377,4.9060807 9.75446848,4.99803764 9.50632127,4.86332507 C9.49833707,4.85899066 9.49046981,4.8544442 9.4827279,4.84969053 L8.5900196,4.30155296 C8.34878336,4.15342993 8.26559529,3.84245795 8.40065452,3.59367218 L8.4170589,3.5634545 C8.55177148,3.31530729 8.86214066,3.22335035 9.11028787,3.35806292 Z M4.8384417,3.53986113 C4.84319537,3.54760305 4.84774183,3.5554703 4.85207624,3.5634545 L4.86848062,3.59367218 C5.00353986,3.84245795 4.92035179,4.15342993 4.67911554,4.30155296 L3.78640725,4.84969053 C3.54579019,4.99743337 3.23096228,4.92214393 3.08321945,4.68152686 C3.07846579,4.67378495 3.07391933,4.6659177 3.06958491,4.65793349 L3.05318053,4.62771581 C2.9181213,4.37893004 3.00130937,4.06795806 3.24254561,3.91983504 L4.13525391,3.37169746 C4.37587097,3.22395463 4.69069887,3.29924407 4.8384417,3.53986113 Z M10.1859157,0.547338991 C10.1906694,0.555080908 10.1952158,0.562948159 10.1995502,0.570932361 L10.2159546,0.601150043 C10.3510138,0.849935813 10.2678258,1.16090779 10.0265895,1.30903082 L9.13388124,1.85716839 C8.89326418,2.00491123 8.57843627,1.92962179 8.43069344,1.68900473 L8.4170589,1.66541135 L8.40065452,1.63519367 C8.26559529,1.3864079 8.34878336,1.07543592 8.5900196,0.927312899 L9.4827279,0.379175323 C9.72334496,0.231432489 10.0381729,0.306721928 10.1859157,0.547338991 Z M3.76281388,0.365540785 C3.77079808,0.369875198 3.77866533,0.374421659 3.78640725,0.379175323 L4.67911554,0.927312899 C4.92035179,1.07543592 5.00353986,1.3864079 4.86848062,1.63519367 L4.85207624,1.66541135 C4.71736367,1.91355856 4.40699449,2.00551551 4.15884728,1.87080293 L4.13525391,1.85716839 L3.24254561,1.30903082 C3.00130937,1.16090779 2.9181213,0.849935813 3.05318053,0.601150043 L3.06958491,0.570932361 C3.20429749,0.322785151 3.51466667,0.23082821 3.76281388,0.365540785 Z M6.63456757,-0.997469938 C6.91875172,-0.997469938 7.1491285,-0.767093165 7.1491285,-0.482909014 L7.1491285,0.676927124 C7.1491285,0.961111275 6.91875172,1.19148805 6.63456757,1.19148805 C6.35038342,1.19148805 6.12000665,0.961111275 6.12000665,0.676927124 L6.12000665,-0.482909014 C6.12000665,-0.767093165 6.35038342,-0.997469938 6.63456757,-0.997469938 Z" id="形状结合" fill="#000000" fill-rule="nonzero" transform="translate(7.994574, 7.502530) rotate(-25.000000) translate(-7.994574, -7.502530) "></path>
    </g>
</svg>