<?xml version="1.0" encoding="UTF-8"?>
<svg width="56px" height="56px" viewBox="0 0 56 56" version="1.1" xmlns="http://www.w3.org/2000/svg" xmlns:xlink="http://www.w3.org/1999/xlink">
    <title>icon/加入/内测交流</title>
    <defs>
        <linearGradient x1="50%" y1="0%" x2="50%" y2="94.9655813%" id="linearGradient-1">
            <stop stop-color="#B27DFE" offset="0%"></stop>
            <stop stop-color="#3F2EE0" offset="100%"></stop>
        </linearGradient>
    </defs>
    <g id="icon/加入/内测交流" stroke="none" stroke-width="1" fill="none" fill-rule="evenodd">
        <g id="图标">
            <rect id="矩形" fill="url(#linearGradient-1)" x="0" y="0" width="56" height="56" rx="12"></rect>
            <g id="icon/加入/内测交流" transform="translate(12, 15)" fill="#FFFFFF" fill-rule="nonzero">
                <g id="编组">
                    <path d="M26,0 C27.6568542,0 29,1.34314575 29,3 L29,11 L28,11 L28,3 C28,1.8954305 27.1045695,1 26,1 L3,1 C1.8954305,1 1,1.8954305 1,3 L1,22.1314829 L4.68952613,19.6717988 C5.3465962,19.2337521 6.11862697,19 6.90832691,19 L20,19 L20,20 L6.90832691,20 C6.31605196,20 5.73702888,20.1753141 5.24422632,20.5038491 L1.5547002,22.9635332 C1.09517151,23.2698857 0.474302165,23.1457118 0.167949706,22.6861831 C0.0584380275,22.5219156 0,22.3289079 0,22.1314829 L0,3 C0,1.34314575 1.34314575,0 3,0 L26,0 Z" id="形状结合"></path>
                    <path d="M15,8 C15,8.55228475 14.5522847,9 14,9 L8,9 C7.44771525,9 7,8.55228475 7,8 C7,7.44771525 7.44771525,7 8,7 L14,7 C14.5522847,7 15,7.44771525 15,8 Z" id="矩形"></path>
                    <path d="M15,13 C15,13.5522847 14.5522847,14 14,14 L8,14 C7.44771525,14 7,13.5522847 7,13 C7,12.4477153 7.44771525,12 8,12 L14,12 C14.5522847,12 15,12.4477153 15,13 Z" id="矩形"></path>
                    <path d="M31,12 C32.6568542,12 34,13.3431458 34,15 L34,23 C34,24.6568542 32.6568542,26 31,26 L24,26 C22.3431458,26 21,24.6568542 21,23 L21,15 C21,13.3431458 22.3431458,12 24,12 L31,12 Z M31,13 L24,13 C22.8954305,13 22,13.8954305 22,15 L22,23 C22,24.1045695 22.8954305,25 24,25 L31,25 C32.1045695,25 33,24.1045695 33,23 L33,15 C33,13.8954305 32.1045695,13 31,13 Z M30.5,21 C30.7761424,21 31,21.2238576 31,21.5 C31,21.7761424 30.7761424,22 30.5,22 L24.5,22 C24.2238576,22 24,21.7761424 24,21.5 C24,21.2238576 24.2238576,21 24.5,21 L30.5,21 Z M30.5,18 C30.7761424,18 31,18.2238576 31,18.5 C31,18.7761424 30.7761424,19 30.5,19 L24.5,19 C24.2238576,19 24,18.7761424 24,18.5 C24,18.2238576 24.2238576,18 24.5,18 L30.5,18 Z M28.5,15 C28.7761424,15 29,15.2238576 29,15.5 C29,15.7761424 28.7761424,16 28.5,16 L24.5,16 C24.2238576,16 24,15.7761424 24,15.5 C24,15.2238576 24.2238576,15 24.5,15 L28.5,15 Z" id="形状结合"></path>
                </g>
            </g>
        </g>
    </g>
</svg>