<?xml version="1.0" encoding="UTF-8"?>
<svg width="18px" height="14px" viewBox="0 0 18 14" version="1.1" xmlns="http://www.w3.org/2000/svg" xmlns:xlink="http://www.w3.org/1999/xlink">
    <g id="页面-1" stroke="none" stroke-width="1" fill="none" fill-rule="evenodd" fill-opacity="0.7">
        <g id="首页" transform="translate(-1353.000000, -619.000000)" fill="#000000" fill-rule="nonzero">
            <g id="DTK/Toolbar/TitleButton/Minimize" transform="translate(1344.000000, 608.000000)">
                <path d="M25,11 C26.1045695,11 27,11.8954305 27,13 L27,23 C27,24.1045695 26.1045695,25 25,25 L11,25 C9.8954305,25 9,24.1045695 9,23 L9,13 C9,11.8954305 9.8954305,11 11,11 L25,11 Z M25.9867807,12.836994 L18.8353539,19.5927498 C18.3931672,19.8691165 17.8428973,19.8942408 17.3810591,19.6681226 L17.2453571,19.5927498 L10.0132193,12.836994 L10.0067277,12.8833789 L10,13 L10,23 C10,23.5128358 10.3860402,23.9355072 10.8833789,23.9932723 L11,24 L25,24 C25.5128358,24 25.9355072,23.6139598 25.9932723,23.1166211 L26,23 L26,13 C26,12.9444922 25.9954775,12.8900408 25.9867807,12.836994 Z M25,12 L11,12 C10.8712109,12 10.7481082,12.0243464 10.6350433,12.0686877 L17.775356,18.7447515 C17.9104687,18.8291969 18.0758545,18.8432711 18.2210583,18.7869742 L18.305355,18.7447515 L25.3649567,12.0686877 C25.2865243,12.0379284 25.2032616,12.0167909 25.1166211,12.0067277 L25,12 Z" id="形状"></path>
            </g>
        </g>
    </g>
</svg>