<?xml version="1.0" encoding="UTF-8"?>
<svg width="12px" height="12px" viewBox="0 0 12 12" version="1.1" xmlns="http://www.w3.org/2000/svg" xmlns:xlink="http://www.w3.org/1999/xlink">
    <g id="页面-1" stroke="none" stroke-width="1" fill="none" fill-rule="evenodd">
        <g id="系统消息" transform="translate(-1174.000000, -301.000000)">
            <g id="编组" transform="translate(255.000000, 203.000000)">
                <g id="消息" transform="translate(548.000000, 52.000000)">
                    <g id="编组-12" transform="translate(10.000000, 12.000000)">
                        <g id="全部收藏" transform="translate(361.000000, 31.000000)">
                            <g id="一键已读" transform="translate(0.000000, 3.000000)">
                                <rect id="矩形" x="0" y="0" width="12" height="12"></rect>
                                <path d="M8,0 C9.0543618,0 9.91816512,0.815877791 9.99451426,1.85073766 L10,2 C11.1045695,2 12,2.8954305 12,4 L12,10 C12,11.1045695 11.1045695,12 10,12 L4,12 C2.8954305,12 2,11.1045695 2,10 C0.8954305,10 0,9.1045695 0,8 L0,2 C0,0.8954305 0.8954305,0 2,0 L8,0 Z M10,3 L10,8 C10,9.1045695 9.1045695,10 8,10 L3,10 C3,10.5128358 3.38604019,10.9355072 3.88337887,10.9932723 L4,11 L10,11 C10.5128358,11 10.9355072,10.6139598 10.9932723,10.1166211 L11,10 L11,4 C11,3.48716416 10.6139598,3.06449284 10.1166211,3.00672773 L10,3 Z M8,1 L2,1 C1.48716416,1 1.06449284,1.38604019 1.00672773,1.88337887 L1,2 L1,8 C1,8.51283584 1.38604019,8.93550716 1.88337887,8.99327227 L2,9 L8,9 C8.51283584,9 8.93550716,8.61395981 8.99327227,8.11662113 L9,8 L9,2 C9,1.48716416 8.61395981,1.06449284 8.11662113,1.00672773 L8,1 Z M7.91972538,3.26796048 C8.08734445,3.44727697 8.09753978,3.71719822 7.95605387,3.9074067 L7.89589781,3.97466569 L4.97542422,6.70860165 C4.7282517,6.93965027 4.35655024,6.95785263 4.08983922,6.76645157 L4.00513893,6.69489257 L2.53111091,5.23683779 C2.33478794,5.04264226 2.3330633,4.72606447 2.52725883,4.5297415 C2.69987707,4.35523219 2.96919242,4.33447959 3.16479308,4.46841207 L3.23435512,4.52588942 L4.50273301,5.78066569 L7.21302017,3.24413292 C7.41475122,3.05556147 7.73115392,3.06622943 7.91972538,3.26796048 Z" id="形状" fill-opacity="0.7" fill="#000000" fill-rule="nonzero"></path>
                            </g>
                        </g>
                    </g>
                </g>
            </g>
        </g>
    </g>
</svg>