<?xml version="1.0" encoding="UTF-8"?>
<svg width="56px" height="56px" viewBox="0 0 56 56" version="1.1" xmlns="http://www.w3.org/2000/svg" xmlns:xlink="http://www.w3.org/1999/xlink">
    <title>icon/加入/全球化翻译</title>
    <defs>
        <linearGradient x1="38.6908933%" y1="100%" x2="38.6908933%" y2="0%" id="linearGradient-1">
            <stop stop-color="#0057D9" offset="0%"></stop>
            <stop stop-color="#45A9FF" offset="100%"></stop>
        </linearGradient>
    </defs>
    <g id="icon/加入/全球化翻译" stroke="none" stroke-width="1" fill="none" fill-rule="evenodd">
        <g id="图标" fill-rule="nonzero">
            <rect id="矩形" fill="url(#linearGradient-1)" x="0" y="0" width="56" height="56" rx="12"></rect>
            <g id="icon/全球化翻译" transform="translate(13, 14)" fill="#FFFFFF">
                <g id="deepin-global-translation" transform="translate(0, 0)">
                    <g id="矩形" opacity="0.953187488" transform="translate(0, 0)">
                        <g id="path-4-link">
                            <path d="M9.5990858,0 C10.9250741,0 12,1.07492591 12,2.40091421 L12,4.02449663 C12,4.52657873 12.1770478,5.0125806 12.5,5.397013 L12.746707,5.6906855 C12.8931593,5.8650177 12.8931593,6.1193776 12.746707,6.2937098 L12.5,6.5873823 C12.1770478,6.9718147 12,7.4578166 12,7.9598987 L12,8.5912834 C12,9.9215809 10.9215809,11 9.5912834,11 L2.8125,11 C1.25919914,11 0,9.7408009 0,8.1875 L0,2.8125 C0,1.25919914 1.25919914,0 2.8125,0 L9.5990858,0 Z M9.5990858,1 L2.8125,1 C1.81148389,1 1,1.81148389 1,2.8125 L1,8.1875 C1,9.18851613 1.81148387,10 2.8125,10 L9.5912834,10 C10.3692962,10 11,9.36929615 11,8.5912834 L11,7.9598987 C11,7.29625542 11.2106168,6.65174118 11.5985069,6.11788463 L11.696,5.992 L11.5985069,5.86651072 C11.2537157,5.39197152 11.0489923,4.82999915 11.0077549,4.24487702 L11,4.02449663 L11,2.40091421 C11,1.62721066 10.3727893,1 9.5990858,1 Z" id="path-4"></path>
                        </g>
                    </g>
                    <g id="矩形" opacity="0.953187488" transform="translate(22.5, 7.8213) rotate(90) translate(-22.5, -7.8213)translate(14.6787, 0.3213)">
                        <g id="path-7-link">
                            <path d="M11.1890783,0 C12.7415075,0 14,1.25849252 14,2.81092172 L14,4.40741811 C14,5.1677656 14.3739035,5.8794922 15,6.3109217 L15.4398531,6.614015 C15.6530268,6.7609083 15.7067576,7.0528003 15.5598643,7.2659739 C15.5274963,7.3129468 15.486826,7.353617 15.4398531,7.385985 L15,7.6890783 C14.3739035,8.1205078 14,8.8322344 14,9.5925819 L14,12.1875 C14,13.7408009 12.7408009,15 11.1875,15 L2.8125,15 C1.2591991,15 0,13.7408009 0,12.1875 L0,2.8125 C0,1.25919914 1.2591991,0 2.8125,0 L11.1890783,0 Z M11.1890783,1 L2.8125,1 C1.81148387,1 1,1.81148387 1,2.8125 L1,12.1875 C1,13.1885162 1.81148385,14 2.8125,14 L11.1875,14 C12.1885162,14 13,13.1885162 13,12.1875 L13,9.5925819 C13,8.63947463 13.410107,7.73969601 14.1135128,7.115591 L14.252,7 L14.1135129,6.88440905 C13.4603503,6.30488292 13.0600831,5.48765867 13.0062346,4.6107581 L13,4.40741811 L13,2.81092172 C13,1.81077726 12.1892227,1 11.1890783,1 Z" id="path-7"></path>
                        </g>
                    </g>
                    <g id="矩形" opacity="0.953187488" transform="translate(7.5, 20.6787) rotate(-90) translate(-7.5, -20.6787)translate(0.1787, 13.1787)">
                        <g id="path-9-link">
                            <path d="M10.1875,0 C11.7408009,0 13,1.2591991 13,2.8125 L13,4.9074181 C13,5.6677656 13.3739035,6.3794922 14,6.8109217 L14.4398531,7.114015 C14.6530268,7.2609083 14.7067576,7.5528003 14.5598643,7.7659739 C14.5274963,7.8129468 14.486826,7.853617 14.4398531,7.885985 L14,8.1890783 C13.3739035,8.6205078 13,9.3322344 13,10.0925819 L13,12.1875 C13,13.7408009 11.7408009,15 10.1875,15 L2.8125,15 C1.25919914,15 0,13.7408009 0,12.1875 L0,2.8125 C0,1.2591991 1.25919914,0 2.8125,0 L10.1875,0 Z M10.1875,1 L2.8125,1 C1.81148387,1 1,1.81148387 1,2.8125 L1,12.1875 C1,13.1885161 1.81148387,14 2.8125,14 L10.1875,14 C11.1885162,14 12,13.1885162 12,12.1875 L12,10.0925819 C12,9.13947463 12.410107,8.23969601 13.1135128,7.615591 L13.252,7.5 L13.1135129,7.38440905 C12.4603503,6.80488292 12.0600831,5.98765867 12.0062346,5.11075809 L12,4.9074181 L12,2.8125 C12,1.81148385 11.1885162,1 10.1875,1 Z" id="path-9"></path>
                        </g>
                    </g>
                    <g id="矩形" opacity="0.953187488" transform="translate(23.5554, 22.5) rotate(-180) translate(-23.5554, -22.5)translate(17.1107, 17)">
                        <g id="path-11-link">
                            <path d="M9.5819918,0 C10.9174209,0 12,1.0825791 12,2.4180082 L12.0385033,3.3742023 C12.0385033,3.869271 12.2158894,4.3479541 12.5385033,4.7234714 L12.7760741,5 C12.9270019,5.1756774 12.9270019,5.435249 12.7760741,5.6109264 L12.5385033,5.887455 C12.2158894,6.2629723 12.0385033,6.7416554 12.0385033,7.2367241 L12,8.5819918 C12,9.9174209 10.9174209,11 9.5819918,11 L2.8125,11 C1.2591991,11 0,9.7408009 0,8.1875 L0,2.8125 C0,1.2591991 1.2591991,0 2.8125,0 L9.5819918,0 Z M9.5819918,1 L2.8125,1 C1.81148385,1 1,1.81148385 1,2.8125 L1,8.1875 C1,9.18851615 1.81148385,10 2.8125,10 L9.5819918,10 C10.3651362,10 11,9.36513615 11,8.5819918 L11.0385033,7.2367241 C11.0385033,6.57596983 11.2515803,5.93489801 11.6429684,5.4073254 L11.7235033,5.3054632 L11.6429685,5.20360108 C11.2950678,4.73464758 11.0880551,4.17601575 11.0463473,3.59359605 L11.0385033,3.3742023 L11,2.4180082 C11,1.63486385 10.3651362,1 9.5819918,1 Z" id="path-11"></path>
                        </g>
                    </g>
                    <path d="M3.5,6 C3.77614237,6 4,5.7761424 4,5.5 C4,5.2238576 3.77614237,5 3.5,5 C3.22385763,5 3,5.2238576 3,5.5 C3,5.7761424 3.22385763,6 3.5,6 Z M5.5,6 C5.7761424,6 6,5.7761424 6,5.5 C6,5.2238576 5.7761424,5 5.5,5 C5.2238576,5 5,5.2238576 5,5.5 C5,5.7761424 5.2238576,6 5.5,6 Z M7.5,6 C7.7761424,6 8,5.7761424 8,5.5 C8,5.2238576 7.7761424,5 7.5,5 C7.2238576,5 7,5.2238576 7,5.5 C7,5.7761424 7.2238576,6 7.5,6 Z" id="形状结合"></path>
                    <path d="M22.5,23 C22.7761424,23 23,22.7761424 23,22.5 C23,22.2238576 22.7761424,22 22.5,22 C22.2238576,22 22,22.2238576 22,22.5 C22,22.7761424 22.2238576,23 22.5,23 Z M24.5,23 C24.7761424,23 25,22.7761424 25,22.5 C25,22.2238576 24.7761424,22 24.5,22 C24.2238576,22 24,22.2238576 24,22.5 C24,22.7761424 24.2238576,23 24.5,23 Z M26.5,23 C26.7761424,23 27,22.7761424 27,22.5 C27,22.2238576 26.7761424,22 26.5,22 C26.2238576,22 26,22.2238576 26,22.5 C26,22.7761424 26.2238576,23 26.5,23 Z" id="形状结合"></path>
                    <path d="M23.9660178,5.01244333 C23.6052953,6.02986573 23.0965841,6.87155153 22.4583828,7.57449793 C21.7461871,6.84380363 21.1912295,5.98361923 20.7935098,5.01244333 L23.9660178,5.01244333 Z M26.7963019,5.01244333 L26.7963019,4.00598613 L22.5971222,4.00598613 L23.3925615,3.75625518 C23.28157,3.37703411 23.0040912,2.78507927 22.7636095,2.35961173 L21.5889491,2.70183562 C21.8016829,3.10880457 22.0051674,3.62676506 22.1069096,4.00598613 L18.2037074,4.00598613 L18.2037074,5.01244333 L19.6558466,5.01244333 C20.1553085,6.31659383 20.7935098,7.42650923 21.6259463,8.34218933 C20.6640197,9.09138223 19.4708607,9.61859193 18.0279708,9.97931443 C18.2499539,10.2290454 18.5736792,10.7470059 18.69392,11.0059861 C20.1830564,10.5805186 21.4224618,9.97006513 22.4398842,9.13762863 C23.4110601,9.95156653 24.6042191,10.56202 26.0563583,10.9504903 C26.2228456,10.6452636 26.5465709,10.1643003 26.7963019,9.92381873 C25.418157,9.60009343 24.2527459,9.06363433 23.3000686,8.32369073 C24.1047572,7.42650923 24.7337092,6.34434173 25.2054232,5.01244333 L26.7963019,5.01244333 Z" id="形状"></path>
                    <path d="M7.5441059,17.9909502 L7.59838,17.9909502 C7.757584,18.5915834 8.1121747,19.9294396 8.662152,22.0045188 L6.4803339,22.0045188 C7.0375478,19.9366762 7.3921385,18.59882 7.5441059,17.9909502 Z M4.22253197,24.9923071 L5.50340035,24.9923071 L6.1872538,22.9923071 L8.9660869,22.9923071 L9.6390856,24.9923071 L10.974228,24.9923071 L8.3256527,16.9923071 L6.8711073,16.9923071 L4.22253197,24.9923071 Z" id="形状"></path>
                </g>
            </g>
        </g>
    </g>
</svg>